<svg xmlns="http://www.w3.org/2000/svg" width="500" height="200" viewBox="0 0 500 200">
  <style>
    .title { font: bold 14px sans-serif; fill: #24292f; }
    .subtitle { font: 12px sans-serif; fill: #57606a; }
    .total { font: bold 18px sans-serif; fill: #24292f; }
    .change { font: bold 12px sans-serif; fill: #57606a; }
    .label { font: 10px sans-serif; fill: #57606a; }
  </style>
  <rect width="500" height="200" fill="#ffffff" rx="6" stroke="#d0d7de"/>

  <!-- Title -->
  <text x="40" y="25" class="title">📝 LaTeX Writing Progress</text>

  <!-- Stats -->
  <text x="460" y="20" class="total" text-anchor="end">126,161 words</text>
  <text x="460" y="35" class="change" text-anchor="end">No change today</text>

  <!-- Chart area -->
  <line x1="40" y1="115.0" x2="460" y2="115.0" stroke="#d0d7de" stroke-width="1"/>
  <rect x="40.0" y="115.0" width="13.7" height="1.0" fill="#2ea44f" rx="2"><title>2026-04-14: +0 words (total: 103094)</title></rect><rect x="55.7" y="115.0" width="13.7" height="4.0" fill="#cf222e" rx="2"><title>2026-04-15: -1486 words (total: 101608)</title></rect><rect x="71.3" y="115.0" width="13.7" height="1.0" fill="#2ea44f" rx="2"><title>2026-04-16: +18 words (total: 101626)</title></rect><rect x="87.0" y="115.0" width="13.7" height="1.0" fill="#2ea44f" rx="2"><title>2026-04-17: +0 words (total: 101626)</title></rect><rect x="102.7" y="115.0" width="13.7" height="1.0" fill="#2ea44f" rx="2"><title>2026-04-18: +0 words (total: 101626)</title></rect><rect x="118.3" y="115.0" width="13.7" height="1.0" fill="#2ea44f" rx="2"><title>2026-04-19: +0 words (total: 101626)</title></rect><rect x="134.0" y="115.0" width="13.7" height="1.0" fill="#2ea44f" rx="2"><title>2026-04-20: +0 words (total: 101626)</title></rect><rect x="149.7" y="115.0" width="13.7" height="1.0" fill="#2ea44f" rx="2"><title>2026-04-21: +0 words (total: 101626)</title></rect><rect x="165.3" y="113.9" width="13.7" height="1.1" fill="#2ea44f" rx="2"><title>2026-04-22: +407 words (total: 102033)</title></rect><rect x="181.0" y="115.0" width="13.7" height="1.0" fill="#2ea44f" rx="2"><title>2026-04-23: +0 words (total: 102033)</title></rect><rect x="196.7" y="115.0" width="13.7" height="1.0" fill="#2ea44f" rx="2"><title>2026-04-24: +0 words (total: 102033)</title></rect><rect x="212.3" y="113.1" width="13.7" height="1.9" fill="#2ea44f" rx="2"><title>2026-04-25: +715 words (total: 102748)</title></rect><rect x="228.0" y="115.0" width="13.7" height="1.0" fill="#2ea44f" rx="2"><title>2026-04-26: +0 words (total: 102748)</title></rect><rect x="243.7" y="115.0" width="13.7" height="1.0" fill="#2ea44f" rx="2"><title>2026-04-27: +0 words (total: 102748)</title></rect><rect x="259.3" y="115.0" width="13.7" height="1.0" fill="#2ea44f" rx="2"><title>2026-04-28: +0 words (total: 102748)</title></rect><rect x="275.0" y="109.6" width="13.7" height="5.4" fill="#2ea44f" rx="2"><title>2026-04-29: +2012 words (total: 104760)</title></rect><rect x="290.7" y="115.0" width="13.7" height="1.0" fill="#2ea44f" rx="2"><title>2026-04-30: +0 words (total: 104760)</title></rect><rect x="306.3" y="94.3" width="13.7" height="20.7" fill="#2ea44f" rx="2"><title>2026-05-01: +7723 words (total: 112483)</title></rect><rect x="322.0" y="114.6" width="13.7" height="1.0" fill="#2ea44f" rx="2"><title>2026-05-02: +144 words (total: 112627)</title></rect><rect x="337.7" y="115.0" width="13.7" height="1.0" fill="#2ea44f" rx="2"><title>2026-05-03: +0 words (total: 112627)</title></rect><rect x="353.3" y="115.0" width="13.7" height="1.0" fill="#2ea44f" rx="2"><title>2026-05-04: +0 words (total: 112627)</title></rect><rect x="369.0" y="114.6" width="13.7" height="1.0" fill="#2ea44f" rx="2"><title>2026-05-05: +131 words (total: 112758)</title></rect><rect x="384.7" y="115.0" width="13.7" height="1.0" fill="#2ea44f" rx="2"><title>2026-05-06: +0 words (total: 112758)</title></rect><rect x="400.3" y="115.0" width="13.7" height="1.0" fill="#2ea44f" rx="2"><title>2026-05-07: +0 words (total: 112758)</title></rect><rect x="416.0" y="80.0" width="13.7" height="35.0" fill="#2ea44f" rx="2"><title>2026-05-08: +13049 words (total: 125807)</title></rect><rect x="431.7" y="114.1" width="13.7" height="1.0" fill="#2ea44f" rx="2"><title>2026-05-09: +354 words (total: 126161)</title></rect><rect x="447.3" y="115.0" width="13.7" height="1.0" fill="#2ea44f" rx="2"><title>2026-05-10: +0 words (total: 126161)</title></rect><rect x="463.0" y="115.0" width="13.7" height="1.0" fill="#2ea44f" rx="2"><title>2026-05-11: +0 words (total: 126161)</title></rect><rect x="478.7" y="115.0" width="13.7" height="1.0" fill="#2ea44f" rx="2"><title>2026-05-12: +0 words (total: 126161)</title></rect><rect x="494.3" y="115.0" width="13.7" height="1.0" fill="#2ea44f" rx="2"><title>2026-05-13: +0 words (total: 126161)</title></rect>

  <!-- Labels -->
  <text x="40" y="190" class="label">Last 30 days</text>
  <text x="460" y="190" class="label" text-anchor="end">Updated: 2026-05-13</text>
</svg>