<svg xmlns="http://www.w3.org/2000/svg" width="500" height="200" viewBox="0 0 500 200">
  <style>
    .title { font: bold 14px sans-serif; fill: #24292f; }
    .subtitle { font: 12px sans-serif; fill: #57606a; }
    .total { font: bold 18px sans-serif; fill: #24292f; }
    .change { font: bold 12px sans-serif; fill: #57606a; }
    .label { font: 10px sans-serif; fill: #57606a; }
  </style>
  <rect width="500" height="200" fill="#ffffff" rx="6" stroke="#d0d7de"/>

  <!-- Title -->
  <text x="40" y="25" class="title">📝 LaTeX Writing Progress</text>

  <!-- Stats -->
  <text x="460" y="20" class="total" text-anchor="end">83,548 words</text>
  <text x="460" y="35" class="change" text-anchor="end">No change today</text>

  <!-- Chart area -->
  <line x1="40" y1="115.0" x2="460" y2="115.0" stroke="#d0d7de" stroke-width="1"/>
  <rect x="40.0" y="115.0" width="19.5" height="1.0" fill="#2ea44f" rx="2"><title>2026-01-12: +0 words (total: 72003)</title></rect><rect x="61.5" y="90.2" width="19.5" height="24.8" fill="#2ea44f" rx="2"><title>2026-01-13: +4050 words (total: 76053)</title></rect><rect x="83.0" y="109.7" width="19.5" height="5.3" fill="#2ea44f" rx="2"><title>2026-01-14: +866 words (total: 76919)</title></rect><rect x="104.6" y="115.0" width="19.5" height="1.0" fill="#2ea44f" rx="2"><title>2026-01-15: +0 words (total: 76919)</title></rect><rect x="126.1" y="115.0" width="19.5" height="1.0" fill="#2ea44f" rx="2"><title>2026-01-16: +0 words (total: 76919)</title></rect><rect x="147.6" y="80.0" width="19.5" height="35.0" fill="#2ea44f" rx="2"><title>2026-01-17: +5710 words (total: 82629)</title></rect><rect x="169.1" y="115.0" width="19.5" height="1.0" fill="#2ea44f" rx="2"><title>2026-01-18: +0 words (total: 82629)</title></rect><rect x="190.7" y="115.0" width="19.5" height="1.0" fill="#2ea44f" rx="2"><title>2026-01-19: +0 words (total: 82629)</title></rect><rect x="212.2" y="115.0" width="19.5" height="1.0" fill="#2ea44f" rx="2"><title>2026-01-20: +0 words (total: 82629)</title></rect><rect x="233.7" y="115.0" width="19.5" height="1.0" fill="#2ea44f" rx="2"><title>2026-01-21: +0 words (total: 82629)</title></rect><rect x="255.2" y="114.4" width="19.5" height="1.0" fill="#2ea44f" rx="2"><title>2026-01-22: +98 words (total: 82727)</title></rect><rect x="276.8" y="107.0" width="19.5" height="8.0" fill="#2ea44f" rx="2"><title>2026-01-23: +1299 words (total: 84026)</title></rect><rect x="298.3" y="115.0" width="19.5" height="1.0" fill="#2ea44f" rx="2"><title>2026-01-24: +0 words (total: 84026)</title></rect><rect x="319.8" y="115.0" width="19.5" height="1.0" fill="#2ea44f" rx="2"><title>2026-01-25: +0 words (total: 84026)</title></rect><rect x="341.3" y="115.0" width="19.5" height="3.5" fill="#cf222e" rx="2"><title>2026-01-26: -577 words (total: 83449)</title></rect><rect x="362.9" y="111.0" width="19.5" height="4.0" fill="#2ea44f" rx="2"><title>2026-01-27: +646 words (total: 84095)</title></rect><rect x="384.4" y="115.0" width="19.5" height="2.6" fill="#cf222e" rx="2"><title>2026-01-28: -419 words (total: 83676)</title></rect><rect x="405.9" y="115.0" width="19.5" height="1.0" fill="#cf222e" rx="2"><title>2026-01-29: -128 words (total: 83548)</title></rect><rect x="427.4" y="115.0" width="19.5" height="1.0" fill="#2ea44f" rx="2"><title>2026-01-30: +0 words (total: 83548)</title></rect><rect x="449.0" y="115.0" width="19.5" height="1.0" fill="#2ea44f" rx="2"><title>2026-01-31: +0 words (total: 83548)</title></rect><rect x="470.5" y="115.0" width="19.5" height="1.0" fill="#2ea44f" rx="2"><title>2026-02-01: +0 words (total: 83548)</title></rect>

  <!-- Labels -->
  <text x="40" y="190" class="label">Last 21 days</text>
  <text x="460" y="190" class="label" text-anchor="end">Updated: 2026-02-01</text>
</svg>