<svg xmlns="http://www.w3.org/2000/svg" width="500" height="200" viewBox="0 0 500 200">
  <style>
    .title { font: bold 14px sans-serif; fill: #24292f; }
    .subtitle { font: 12px sans-serif; fill: #57606a; }
    .total { font: bold 18px sans-serif; fill: #24292f; }
    .change { font: bold 12px sans-serif; fill: #57606a; }
    .label { font: 10px sans-serif; fill: #57606a; }
  </style>
  <rect width="500" height="200" fill="#ffffff" rx="6" stroke="#d0d7de"/>

  <!-- Title -->
  <text x="40" y="25" class="title">📝 LaTeX Writing Progress</text>

  <!-- Stats -->
  <text x="460" y="20" class="total" text-anchor="end">129,071 words</text>
  <text x="460" y="35" class="change" text-anchor="end">No change today</text>

  <!-- Chart area -->
  <line x1="40" y1="115.0" x2="460" y2="115.0" stroke="#d0d7de" stroke-width="1"/>
  <rect x="40.0" y="115.0" width="13.7" height="1.0" fill="#2ea44f" rx="2"><title>2026-05-25: +0 words (total: 126161)</title></rect><rect x="55.7" y="115.0" width="13.7" height="1.0" fill="#2ea44f" rx="2"><title>2026-05-26: +0 words (total: 126161)</title></rect><rect x="71.3" y="115.0" width="13.7" height="1.0" fill="#2ea44f" rx="2"><title>2026-05-27: +0 words (total: 126161)</title></rect><rect x="87.0" y="115.0" width="13.7" height="1.0" fill="#2ea44f" rx="2"><title>2026-05-28: +0 words (total: 126161)</title></rect><rect x="102.7" y="115.0" width="13.7" height="1.0" fill="#2ea44f" rx="2"><title>2026-05-29: +0 words (total: 126161)</title></rect><rect x="118.3" y="115.0" width="13.7" height="1.0" fill="#2ea44f" rx="2"><title>2026-05-30: +0 words (total: 126161)</title></rect><rect x="134.0" y="115.0" width="13.7" height="1.0" fill="#2ea44f" rx="2"><title>2026-05-31: +0 words (total: 126161)</title></rect><rect x="149.7" y="115.0" width="13.7" height="1.0" fill="#2ea44f" rx="2"><title>2026-06-01: +0 words (total: 126161)</title></rect><rect x="165.3" y="115.0" width="13.7" height="1.0" fill="#2ea44f" rx="2"><title>2026-06-02: +0 words (total: 126161)</title></rect><rect x="181.0" y="115.0" width="13.7" height="1.0" fill="#2ea44f" rx="2"><title>2026-06-03: +0 words (total: 126161)</title></rect><rect x="196.7" y="115.0" width="13.7" height="1.0" fill="#2ea44f" rx="2"><title>2026-06-04: +0 words (total: 126161)</title></rect><rect x="212.3" y="115.0" width="13.7" height="1.0" fill="#2ea44f" rx="2"><title>2026-06-05: +0 words (total: 126161)</title></rect><rect x="228.0" y="115.0" width="13.7" height="1.0" fill="#2ea44f" rx="2"><title>2026-06-06: +0 words (total: 126161)</title></rect><rect x="243.7" y="115.0" width="13.7" height="1.0" fill="#2ea44f" rx="2"><title>2026-06-07: +0 words (total: 126161)</title></rect><rect x="259.3" y="115.0" width="13.7" height="1.0" fill="#2ea44f" rx="2"><title>2026-06-08: +0 words (total: 126161)</title></rect><rect x="275.0" y="115.0" width="13.7" height="1.0" fill="#2ea44f" rx="2"><title>2026-06-09: +0 words (total: 126161)</title></rect><rect x="290.7" y="115.0" width="13.7" height="1.0" fill="#2ea44f" rx="2"><title>2026-06-10: +0 words (total: 126161)</title></rect><rect x="306.3" y="115.0" width="13.7" height="1.0" fill="#2ea44f" rx="2"><title>2026-06-11: +0 words (total: 126161)</title></rect><rect x="322.0" y="115.0" width="13.7" height="1.0" fill="#2ea44f" rx="2"><title>2026-06-12: +0 words (total: 126161)</title></rect><rect x="337.7" y="115.0" width="13.7" height="1.0" fill="#2ea44f" rx="2"><title>2026-06-13: +0 words (total: 126161)</title></rect><rect x="353.3" y="115.0" width="13.7" height="1.0" fill="#2ea44f" rx="2"><title>2026-06-14: +0 words (total: 126161)</title></rect><rect x="369.0" y="115.0" width="13.7" height="1.0" fill="#2ea44f" rx="2"><title>2026-06-15: +0 words (total: 126161)</title></rect><rect x="384.7" y="115.0" width="13.7" height="1.0" fill="#2ea44f" rx="2"><title>2026-06-16: +0 words (total: 126161)</title></rect><rect x="400.3" y="115.0" width="13.7" height="1.0" fill="#2ea44f" rx="2"><title>2026-06-17: +0 words (total: 126161)</title></rect><rect x="416.0" y="115.0" width="13.7" height="1.0" fill="#2ea44f" rx="2"><title>2026-06-18: +0 words (total: 126161)</title></rect><rect x="431.7" y="115.0" width="13.7" height="1.0" fill="#2ea44f" rx="2"><title>2026-06-19: +0 words (total: 126161)</title></rect><rect x="447.3" y="115.0" width="13.7" height="1.0" fill="#2ea44f" rx="2"><title>2026-06-20: +0 words (total: 126161)</title></rect><rect x="463.0" y="80.0" width="13.7" height="35.0" fill="#2ea44f" rx="2"><title>2026-06-21: +2910 words (total: 129071)</title></rect><rect x="478.7" y="115.0" width="13.7" height="1.0" fill="#2ea44f" rx="2"><title>2026-06-22: +0 words (total: 129071)</title></rect><rect x="494.3" y="115.0" width="13.7" height="1.0" fill="#2ea44f" rx="2"><title>2026-06-23: +0 words (total: 129071)</title></rect>

  <!-- Labels -->
  <text x="40" y="190" class="label">Last 30 days</text>
  <text x="460" y="190" class="label" text-anchor="end">Updated: 2026-06-23</text>
</svg>