<svg xmlns="http://www.w3.org/2000/svg" width="500" height="200" viewBox="0 0 500 200">
  <style>
    .title { font: bold 14px sans-serif; fill: #24292f; }
    .subtitle { font: 12px sans-serif; fill: #57606a; }
    .total { font: bold 18px sans-serif; fill: #24292f; }
    .change { font: bold 12px sans-serif; fill: #57606a; }
    .label { font: 10px sans-serif; fill: #57606a; }
  </style>
  <rect width="500" height="200" fill="#ffffff" rx="6" stroke="#d0d7de"/>

  <!-- Title -->
  <text x="40" y="25" class="title">📝 LaTeX Writing Progress</text>

  <!-- Stats -->
  <text x="460" y="20" class="total" text-anchor="end">83,548 words</text>
  <text x="460" y="35" class="change" text-anchor="end">No change today</text>

  <!-- Chart area -->
  <line x1="40" y1="115.0" x2="460" y2="115.0" stroke="#d0d7de" stroke-width="1"/>
  <rect x="40.0" y="115.0" width="17.1" height="1.0" fill="#2ea44f" rx="2"><title>2026-01-12: +0 words (total: 72003)</title></rect><rect x="59.1" y="90.2" width="17.1" height="24.8" fill="#2ea44f" rx="2"><title>2026-01-13: +4050 words (total: 76053)</title></rect><rect x="78.2" y="109.7" width="17.1" height="5.3" fill="#2ea44f" rx="2"><title>2026-01-14: +866 words (total: 76919)</title></rect><rect x="97.2" y="115.0" width="17.1" height="1.0" fill="#2ea44f" rx="2"><title>2026-01-15: +0 words (total: 76919)</title></rect><rect x="116.3" y="115.0" width="17.1" height="1.0" fill="#2ea44f" rx="2"><title>2026-01-16: +0 words (total: 76919)</title></rect><rect x="135.4" y="80.0" width="17.1" height="35.0" fill="#2ea44f" rx="2"><title>2026-01-17: +5710 words (total: 82629)</title></rect><rect x="154.5" y="115.0" width="17.1" height="1.0" fill="#2ea44f" rx="2"><title>2026-01-18: +0 words (total: 82629)</title></rect><rect x="173.6" y="115.0" width="17.1" height="1.0" fill="#2ea44f" rx="2"><title>2026-01-19: +0 words (total: 82629)</title></rect><rect x="192.7" y="115.0" width="17.1" height="1.0" fill="#2ea44f" rx="2"><title>2026-01-20: +0 words (total: 82629)</title></rect><rect x="211.8" y="115.0" width="17.1" height="1.0" fill="#2ea44f" rx="2"><title>2026-01-21: +0 words (total: 82629)</title></rect><rect x="230.8" y="114.4" width="17.1" height="1.0" fill="#2ea44f" rx="2"><title>2026-01-22: +98 words (total: 82727)</title></rect><rect x="249.9" y="107.0" width="17.1" height="8.0" fill="#2ea44f" rx="2"><title>2026-01-23: +1299 words (total: 84026)</title></rect><rect x="269.0" y="115.0" width="17.1" height="1.0" fill="#2ea44f" rx="2"><title>2026-01-24: +0 words (total: 84026)</title></rect><rect x="288.1" y="115.0" width="17.1" height="1.0" fill="#2ea44f" rx="2"><title>2026-01-25: +0 words (total: 84026)</title></rect><rect x="307.2" y="115.0" width="17.1" height="3.5" fill="#cf222e" rx="2"><title>2026-01-26: -577 words (total: 83449)</title></rect><rect x="326.2" y="111.0" width="17.1" height="4.0" fill="#2ea44f" rx="2"><title>2026-01-27: +646 words (total: 84095)</title></rect><rect x="345.3" y="115.0" width="17.1" height="2.6" fill="#cf222e" rx="2"><title>2026-01-28: -419 words (total: 83676)</title></rect><rect x="364.4" y="115.0" width="17.1" height="1.0" fill="#cf222e" rx="2"><title>2026-01-29: -128 words (total: 83548)</title></rect><rect x="383.5" y="115.0" width="17.1" height="1.0" fill="#2ea44f" rx="2"><title>2026-01-30: +0 words (total: 83548)</title></rect><rect x="402.6" y="115.0" width="17.1" height="1.0" fill="#2ea44f" rx="2"><title>2026-01-31: +0 words (total: 83548)</title></rect><rect x="421.7" y="115.0" width="17.1" height="1.0" fill="#2ea44f" rx="2"><title>2026-02-01: +0 words (total: 83548)</title></rect><rect x="440.8" y="115.0" width="17.1" height="1.0" fill="#2ea44f" rx="2"><title>2026-02-02: +0 words (total: 83548)</title></rect><rect x="459.8" y="115.0" width="17.1" height="1.0" fill="#2ea44f" rx="2"><title>2026-02-03: +0 words (total: 83548)</title></rect><rect x="478.9" y="115.0" width="17.1" height="1.0" fill="#2ea44f" rx="2"><title>2026-02-04: +0 words (total: 83548)</title></rect>

  <!-- Labels -->
  <text x="40" y="190" class="label">Last 24 days</text>
  <text x="460" y="190" class="label" text-anchor="end">Updated: 2026-02-04</text>
</svg>